Coordinates
version=1
nRows=4
nColumns=107
inDegrees=yes

Units are S.I. units (second, meters, Newtons, ...)
If the header above contains a line with 'inDegrees', this indicates whether rotational values are in degrees (yes) or radians (no).

endheader
time	sternoclavicular_r2	sternoclavicular_r3	unrotscap_r3	unrotscap_r2	acromioclavicular_r2	acromioclavicular_r3	acromioclavicular_r1	unrothum_r1	unrothum_r3	unrothum_r2	elv_angle	shoulder_elv	shoulder1_r2	shoulder_rot	elbow_flexion	pro_sup	deviation	flexion	proximal_distal_r1	proximal_distal_r3	cmc_flexion	cmc_abduction	mp_flexion	ip_flexion	mcp2_flexion	mcp2_abduction	pm2_flexion	md2_flexion	mcp3_flexion	mcp3_abduction	pm3_flexion	md3_flexion	mcp4_flexion	mcp4_abduction	pm4_flexion	md4_flexion	mcp5_flexion	mcp5_abduction	pm5_flexion	md5_flexion	bicpt_tx	bicpt_ty	bicpt_tz	bicpt2_tx	bicpt2_ty	bicpt2_tz	ptpt_tx	ptpt_ty	ptpt_tz	FCUpt_tx	FCUpt_ty	FCUpt_tz	EDCpt_tx	EDCpt_ty	EDCpt_tz	APLpt_tx	APLpt_ty	APLpt_tz	FPLpt_tx	FPLpt_ty	FPLpt_tz	FPLpt2_tx	FPLpt2_ty	FPLpt2_tz	PEC1pt2_tx	PEC1pt2_ty	PEC1pt2_tz	PEC1pt3_tx	PEC1pt3_ty	PEC1pt3_tz	PEC2pt2_tx	PEC2pt2_ty	PEC2pt2_tz	PEC2pt3_tx	PEC2pt3_ty	PEC2pt3_tz	PEC3pt2_tx	PEC3pt2_ty	PEC3pt2_tz	PEC3pt3_tx	PEC3pt3_ty	PEC3pt3_tz	DELT2pt2a_tx	DELT2pt2a_ty	DELT2pt2a_tz	DELT2pt2_tx	DELT2pt2_ty	DELT2pt2_tz	LAT1pt2_tx	LAT1pt2_ty	LAT1pt2_tz	LAT1pt3_tx	LAT1pt3_ty	LAT1pt3_tz	LAT2pt2_tx	LAT2pt2_ty	LAT2pt2_tz	LAT2pt3_tx	LAT2pt3_ty	LAT2pt3_tz	LAT3pt2_tx	LAT3pt2_ty	LAT3pt2_tz	LAT3pt3_tx	LAT3pt3_ty	LAT3pt3_tz
      0.00000000	     -0.30974279	      0.13119243	     -0.13119243	      0.30974279	     -0.06271661	      0.50685362	      0.22782721	     -0.22782721	     -0.50685362	      0.06271661	    101.84472786	     73.33435935	     -1.77752583	    -40.81670176	     32.56847385	     84.83459056	      0.34943415	     -0.46751668	      0.37428825	     -0.23375834	     42.33631382	    -13.66989833	      5.39363421	      7.92272034	     97.49875270	     12.91444512	     80.23866088	     73.79203182	     94.48225999	      0.83010227	     82.61554329	     54.25140337	     93.16760555	    -13.45150253	     93.20663517	     41.74175005	     92.53514537	    -14.22732312	     95.97948368	      5.28632338	      0.00097726	     -0.03133284	     -0.00490126	      0.01435882	     -0.01904739	     -0.00127466	      0.00128168	     -0.06895320	     -0.00688388	      0.01260433	     -0.18227701	      0.00005221	     -0.01018013	      0.00351427	     -0.00072017	      0.00029529	      0.00011812	      0.00059059	      0.00037798	      0.00113393	      0.00063783	     -0.00000671	     -0.00006265	     -0.00007518	      0.00240374	      0.00843346	      0.00586675	     -0.00786308	      0.01898547	     -0.01800767	      0.00240374	      0.00843346	      0.00586675	      0.00052964	      0.01760026	     -0.00924829	      0.00383924	      0.00468974	      0.01569582	      0.00000000	      0.00718867	      0.00000000	     -0.00688529	     -0.03181899	     -0.00592386	      0.02289060	     -0.00114067	     -0.01340021	     -0.00085557	      0.01434095	     -0.00586675	      0.00236300	      0.02069660	     -0.01711136	     -0.00574453	      0.01242611	     -0.00525563	     -0.01197796	      0.02623743	     -0.02937451	     -0.02248922	      0.01389280	     -0.00704825	     -0.01491133	      0.03031156	     -0.03670795
      0.03333333	     -0.30959636	      0.13113041	     -0.13113041	      0.30959636	     -0.06268696	      0.50661400	      0.22771951	     -0.22771951	     -0.50661400	      0.06268696	    101.90492796	     73.29968975	     -1.77857652	    -41.01486937	     32.55413685	     84.93838128	      0.34597636	     -0.48438392	      0.37156379	     -0.24219196	     42.35309421	    -13.64221252	      5.60317515	      7.57260086	     97.40695893	     12.90328103	     80.16301920	     73.84730764	     94.53520871	      0.73913305	     82.64363068	     54.09804618	     93.14464279	    -13.44854336	     93.31152243	     42.04121539	     92.42443880	    -14.22351373	     96.48003169	      5.28926151	      0.00097679	     -0.03133120	     -0.00490100	      0.01434836	     -0.01904349	     -0.00125705	      0.00127401	     -0.06895816	     -0.00689224	      0.01261622	     -0.18227353	      0.00005498	     -0.01019258	      0.00351993	     -0.00072343	      0.00029911	      0.00011964	      0.00059821	      0.00038286	      0.00114857	      0.00064607	     -0.00000668	     -0.00006228	     -0.00007474	      0.00240260	      0.00842947	      0.00586398	     -0.00785936	      0.01897649	     -0.01799916	      0.00240260	      0.00842947	      0.00586398	      0.00052939	      0.01759194	     -0.00924391	      0.00383789	      0.00468752	      0.01569237	      0.00000000	      0.00718183	      0.00000000	     -0.00688203	     -0.03180395	     -0.00591818	      0.02294950	     -0.00114792	     -0.01351871	     -0.00085516	      0.01433417	     -0.00586398	      0.00236188	      0.02068682	     -0.01710328	     -0.00574181	      0.01242024	     -0.00525315	     -0.01197229	      0.02622502	     -0.02936062	     -0.02247859	      0.01388623	     -0.00704492	     -0.01490428	      0.03029723	     -0.03669060
      0.06666667	     -0.30891982	      0.13084386	     -0.13084386	      0.30891982	     -0.06254998	      0.50550693	      0.22722189	     -0.22722189	     -0.50550693	      0.06254998	    102.25994364	     73.13951334	     -1.78477271	    -42.27161237	     32.41996337	     85.25404951	      0.32455365	     -0.54624916	      0.35424754	     -0.27312458	     42.34047747	    -13.36881780	      5.50923253	      7.52868580	     97.55650545	     12.88081756	     80.23190951	     73.61345306	     94.67477356	      0.77151853	     82.63428242	     54.31926770	     93.18512460	    -13.45114479	     93.54774241	     42.10824995	     92.30394543	    -14.22229923	     97.32354976	      5.26628921	      0.00097235	     -0.03131582	     -0.00489852	      0.01431638	     -0.01900704	     -0.00120339	      0.00125069	     -0.06897324	     -0.00691767	      0.01265240	     -0.18226292	      0.00006346	     -0.01023046	      0.00353716	     -0.00073342	      0.00030902	      0.00012361	      0.00061803	      0.00039554	      0.00118662	      0.00066748	     -0.00000670	     -0.00006256	     -0.00007507	      0.00239735	      0.00841105	      0.00585117	     -0.00784219	      0.01893502	     -0.01795983	      0.00239735	      0.00841105	      0.00585117	      0.00052823	      0.01755350	     -0.00922371	      0.00383165	      0.00467728	      0.01567640	      0.00000000	      0.00715029	      0.00000000	     -0.00686699	     -0.03173445	     -0.00589197	      0.02331089	     -0.00119405	     -0.01427754	     -0.00085330	      0.01430285	     -0.00585117	      0.00235672	      0.02064161	     -0.01706590	     -0.00572927	      0.01239309	     -0.00524167	     -0.01194613	      0.02616771	     -0.02929646	     -0.02242947	      0.01385589	     -0.00702953	     -0.01487171	      0.03023102	     -0.03661042
      0.10000000	     -0.30976924	      0.13120363	     -0.13120363	      0.30976924	     -0.06272197	      0.50689689	      0.22784666	     -0.22784666	     -0.50689689	      0.06272197	    101.82059766	     73.34062011	     -1.77710468	    -40.69069627	     32.56357559	     84.78583129	      0.34856301	     -0.49071753	      0.37360414	     -0.24535877	     42.35426288	    -13.58294431	      5.50280277	      7.93817830	     97.35626899	     12.88764084	     80.22414070	     73.96173117	     94.35826382	      1.01181504	     82.58282458	     54.28681328	     93.01094053	    -13.44541371	     93.43578202	     42.12427122	     92.00611226	    -14.22070367	     97.40980388	      5.30068530	      0.00097710	     -0.03133228	     -0.00490117	      0.01436373	     -0.01904606	     -0.00128293	      0.00128528	     -0.06895087	     -0.00687995	      0.01259875	     -0.18227864	      0.00005091	     -0.01017428	      0.00351161	     -0.00071863	      0.00030042	      0.00012017	      0.00060084	      0.00038454	      0.00115362	      0.00064891	     -0.00000667	     -0.00006225	     -0.00007471	      0.00240394	      0.00843418	      0.00586725	     -0.00786375	      0.01898709	     -0.01800921	      0.00240394	      0.00843418	      0.00586725	      0.00052968	      0.01760176	     -0.00924907	      0.00383948	      0.00469014	      0.01569644	      0.00000000	      0.00718990	      0.00000000	     -0.00688588	     -0.03182171	     -0.00592489	      0.02285285	     -0.00113606	     -0.01332504	     -0.00085564	      0.01434218	     -0.00586725	      0.00236320	      0.02069837	     -0.01711283	     -0.00574502	      0.01242717	     -0.00525608	     -0.01197898	      0.02623967	     -0.02937702	     -0.02249114	      0.01389398	     -0.00704885	     -0.01491261	      0.03031415	     -0.03671109
